<?xml version="1.0" encoding="UTF-8" standalone="no"?>
<!-- Created with Inkscape (http://www.inkscape.org/) -->

<svg
   xmlns:dc="http://purl.org/dc/elements/1.1/"
   xmlns:cc="http://creativecommons.org/ns#"
   xmlns:rdf="http://www.w3.org/1999/02/22-rdf-syntax-ns#"
   xmlns:svg="http://www.w3.org/2000/svg"
   xmlns="http://www.w3.org/2000/svg"
   xmlns:sodipodi="http://sodipodi.sourceforge.net/DTD/sodipodi-0.dtd"
   xmlns:inkscape="http://www.inkscape.org/namespaces/inkscape"
   width="744.09448819"
   height="1052.3622047"
   id="svg2"
   version="1.1"
   inkscape:version="0.48.1 r9760"
   sodipodi:docname="grape.svg">
  <defs
     id="defs4" />
  <sodipodi:namedview
     id="base"
     pagecolor="#ffffff"
     bordercolor="#666666"
     borderopacity="1.0"
     inkscape:pageopacity="0.0"
     inkscape:pageshadow="2"
     inkscape:zoom="0.056568543"
     inkscape:cx="1191.21"
     inkscape:cy="-928.95779"
     inkscape:document-units="px"
     inkscape:current-layer="layer1"
     showgrid="true"
     inkscape:window-width="1024"
     inkscape:window-height="691"
     inkscape:window-x="0"
     inkscape:window-y="24"
     inkscape:window-maximized="1">
    <inkscape:grid
       type="xygrid"
       id="grid4082" />
  </sodipodi:namedview>
  <metadata
     id="metadata7">
    <rdf:RDF>
      <cc:Work
         rdf:about="">
        <dc:format>image/svg+xml</dc:format>
        <dc:type
           rdf:resource="http://purl.org/dc/dcmitype/StillImage" />
        <dc:title />
      </cc:Work>
    </rdf:RDF>
  </metadata>
  <g
     inkscape:label="Layer 1"
     inkscape:groupmode="layer"
     id="layer1">
    <path
       sodipodi:type="arc"
       style="opacity:0.95999995;fill:#634c96;fill-opacity:1;stroke:#390909;stroke-width:3.05324912;stroke-linecap:round;stroke-linejoin:round;stroke-miterlimit:4;stroke-opacity:1;stroke-dasharray:none;stroke-dashoffset:0"
       id="path2987-2"
       sodipodi:cx="301.78571"
       sodipodi:cy="640.57648"
       sodipodi:rx="36.785713"
       sodipodi:ry="14.642858"
       d="m 338.57142,640.57648 a 36.785713,14.642858 0 1 1 -73.57143,0 36.785713,14.642858 0 1 1 73.57143,0 z"
       transform="matrix(1.1854007,0,0,1.1048895,-2.2607491,-84.701019)" />
    <path
       sodipodi:type="arc"
       style="opacity:0.95999995;fill:#b000a4;fill-opacity:1;stroke:#390909;stroke-width:3.56504869;stroke-linecap:round;stroke-linejoin:round;stroke-miterlimit:4;stroke-opacity:1;stroke-dasharray:none;stroke-dashoffset:0"
       id="path2985"
       sodipodi:cx="331.42856"
       sodipodi:cy="532.36218"
       sodipodi:rx="65.714287"
       sodipodi:ry="65.714287"
       d="m 397.14285,532.36218 a 65.714287,65.714287 0 1 1 -3.09576,-19.93205 l -62.61853,19.93205 z"
       transform="matrix(1,0,0,0.96067735,0,60.6819)"
       sodipodi:start="0"
       sodipodi:end="5.9750169" />
    <path
       sodipodi:type="arc"
       style="opacity:0.95999995;fill:#634c96;fill-opacity:1;stroke:#390909;stroke-width:3.05324912;stroke-linecap:round;stroke-linejoin:round;stroke-miterlimit:4;stroke-opacity:1;stroke-dasharray:none;stroke-dashoffset:0"
       id="path2987-2-1"
       sodipodi:cx="301.78571"
       sodipodi:cy="640.57648"
       sodipodi:rx="36.785713"
       sodipodi:ry="14.642858"
       d="m 338.57142,640.57648 a 36.785713,14.642858 0 1 1 -73.57143,0 36.785713,14.642858 0 1 1 73.57143,0 z"
       transform="matrix(1.1854007,0,0,1.1048895,-37.59413,-78.596119)" />
    <path
       sodipodi:type="arc"
       style="opacity:0.95999995;fill:#634c96;fill-opacity:1;stroke:#390909;stroke-width:2.50336862;stroke-linecap:round;stroke-linejoin:round;stroke-miterlimit:4;stroke-opacity:1;stroke-dasharray:none;stroke-dashoffset:0"
       id="path2987-2-1-0"
       sodipodi:cx="301.78571"
       sodipodi:cy="640.57648"
       sodipodi:rx="36.785713"
       sodipodi:ry="14.642858"
       d="m 338.57142,640.57648 a 36.785713,14.642858 0 1 1 -73.57143,0 36.785713,14.642858 0 1 1 73.57143,0 z"
       transform="matrix(0.71574828,-0.10524977,0.66274804,2.6246093,-324.72165,-1062.9045)" />
    <path
       sodipodi:type="arc"
       style="opacity:0.95999995;fill:#fff0fe;fill-opacity:1;stroke:#390909;stroke-width:4;stroke-linecap:round;stroke-linejoin:round;stroke-miterlimit:4;stroke-opacity:1;stroke-dasharray:none;stroke-dashoffset:0"
       id="path3842"
       sodipodi:cx="398.21429"
       sodipodi:cy="532.36218"
       sodipodi:rx="24.642857"
       sodipodi:ry="18.571428"
       d="m 422.85715,532.36218 a 24.642857,18.571428 0 1 1 -49.28571,0 24.642857,18.571428 0 1 1 49.28571,0 z"
       transform="matrix(0.61897381,-0.18615607,0.38715442,0.74964622,-96.233433,214.55116)" />
    <path
       sodipodi:type="arc"
       style="opacity:0.95999995000000005;fill:#acabf6;fill-opacity:1;stroke:none"
       id="path3844"
       sodipodi:cx="496.42856"
       sodipodi:cy="492.71933"
       sodipodi:rx="12.857142"
       sodipodi:ry="10.357142"
       d="m 509.2857,492.71933 a 12.857142,10.357142 0 1 1 -4.00471,-7.51115 l -8.85243,7.51115 z"
       sodipodi:start="0"
       sodipodi:end="5.4718388"
       transform="matrix(0.54184913,0.11303149,-0.09838519,0.62251254,141.59913,175.03317)" />
    <path
       sodipodi:type="arc"
       style="opacity:0.95999995;fill:#634c96;fill-opacity:1;stroke:#390909;stroke-width:10.26346111;stroke-linecap:round;stroke-linejoin:round;stroke-miterlimit:4;stroke-opacity:1;stroke-dasharray:none;stroke-dashoffset:0"
       id="path2987-2-1-0-0"
       sodipodi:cx="301.78571"
       sodipodi:cy="640.57648"
       sodipodi:rx="36.785713"
       sodipodi:ry="14.642858"
       d="m 338.57142,640.57648 a 36.785713,14.642858 0 1 1 -73.57143,0 36.785713,14.642858 0 1 1 73.57143,0 z"
       transform="matrix(0.17457871,-0.02567156,0.16165138,0.64017044,153.82682,216.33422)" />
    <path
       sodipodi:type="arc"
       style="opacity:0.95999995;fill:#634c96;fill-opacity:1;stroke:#390909;stroke-width:10.26346111;stroke-linecap:round;stroke-linejoin:round;stroke-miterlimit:4;stroke-opacity:1;stroke-dasharray:none;stroke-dashoffset:0"
       id="path2987-2-1-0-0-0"
       sodipodi:cx="301.78571"
       sodipodi:cy="640.57648"
       sodipodi:rx="36.785713"
       sodipodi:ry="14.642858"
       d="m 338.57142,640.57648 a 36.785713,14.642858 0 1 1 -73.57143,0 36.785713,14.642858 0 1 1 73.57143,0 z"
       transform="matrix(0.17457871,-0.02567156,0.16165138,0.64017044,167.81023,215.53666)" />
    <path
       sodipodi:type="arc"
       style="opacity:0.95999995;fill:#634c96;fill-opacity:1;stroke:#390909;stroke-width:10.26346111;stroke-linecap:round;stroke-linejoin:round;stroke-miterlimit:4;stroke-opacity:1;stroke-dasharray:none;stroke-dashoffset:0"
       id="path2987-2-1-0-0-6"
       sodipodi:cx="301.78571"
       sodipodi:cy="640.57648"
       sodipodi:rx="36.785713"
       sodipodi:ry="14.642858"
       d="m 338.57142,640.57648 a 36.785713,14.642858 0 1 1 -73.57143,0 36.785713,14.642858 0 1 1 73.57143,0 z"
       transform="matrix(0.17457871,-0.02567156,0.16165138,0.64017044,182.91273,211.96903)" />
    <path
       sodipodi:type="arc"
       style="opacity:0.95999995;fill:#634c96;fill-opacity:1;stroke:#390909;stroke-width:3.05324912;stroke-linecap:round;stroke-linejoin:round;stroke-miterlimit:4;stroke-opacity:1;stroke-dasharray:none;stroke-dashoffset:0"
       id="path2987-2-3"
       sodipodi:cx="301.78571"
       sodipodi:cy="640.57648"
       sodipodi:rx="36.785713"
       sodipodi:ry="14.642858"
       d="m 338.57142,640.57648 a 36.785713,14.642858 0 1 1 -73.57143,0 36.785713,14.642858 0 1 1 73.57143,0 z"
       transform="matrix(1.1854007,0,0,1.1048895,186.76966,-80.360384)" />
    <path
       sodipodi:type="arc"
       style="opacity:0.95999995000000005;fill:#b000a4;fill-opacity:1;stroke:#390909;stroke-width:3.56479143;stroke-linecap:round;stroke-linejoin:round;stroke-miterlimit:4;stroke-opacity:1;stroke-dasharray:none;stroke-dashoffset:0"
       id="path2985-8"
       sodipodi:cx="331.42856"
       sodipodi:cy="532.36218"
       sodipodi:rx="65.714287"
       sodipodi:ry="65.714287"
       d="m 390.88098,560.3582 a 65.714287,65.714287 0 1 1 3.16611,-47.92807 l -62.61853,19.93205 z"
       transform="matrix(0.99270254,-0.12058885,0.11584697,0.95366684,129.76509,106.53366)"
       sodipodi:start="0.44009607"
       sodipodi:end="5.9750169" />
    <path
       sodipodi:type="arc"
       style="opacity:0.95999995;fill:#634c96;fill-opacity:1;stroke:#390909;stroke-width:3.05324912;stroke-linecap:round;stroke-linejoin:round;stroke-miterlimit:4;stroke-opacity:1;stroke-dasharray:none;stroke-dashoffset:0"
       id="path2987-2-1-4"
       sodipodi:cx="301.78571"
       sodipodi:cy="640.57648"
       sodipodi:rx="36.785713"
       sodipodi:ry="14.642858"
       d="m 338.57142,640.57648 a 36.785713,14.642858 0 1 1 -73.57143,0 36.785713,14.642858 0 1 1 73.57143,0 z"
       transform="matrix(1.1854007,0,0,1.1048895,151.43627,-76.255484)" />
    <path
       sodipodi:type="arc"
       style="opacity:0.95999995;fill:#634c96;fill-opacity:1;stroke:#390909;stroke-width:2.50336862;stroke-linecap:round;stroke-linejoin:round;stroke-miterlimit:4;stroke-opacity:1;stroke-dasharray:none;stroke-dashoffset:0"
       id="path2987-2-1-0-3"
       sodipodi:cx="301.78571"
       sodipodi:cy="640.57648"
       sodipodi:rx="36.785713"
       sodipodi:ry="14.642858"
       d="m 338.57142,640.57648 a 36.785713,14.642858 0 1 1 -73.57143,0 36.785713,14.642858 0 1 1 73.57143,0 z"
       transform="matrix(0.71574828,-0.10524977,0.66274804,2.6246093,-135.69124,-1060.5638)" />
    <path
       sodipodi:type="arc"
       style="opacity:0.95999995;fill:#fff0fe;fill-opacity:1;stroke:#390909;stroke-width:4;stroke-linecap:round;stroke-linejoin:round;stroke-miterlimit:4;stroke-opacity:1;stroke-dasharray:none;stroke-dashoffset:0"
       id="path3842-7"
       sodipodi:cx="398.21429"
       sodipodi:cy="532.36218"
       sodipodi:rx="24.642857"
       sodipodi:ry="18.571428"
       d="m 422.85715,532.36218 a 24.642857,18.571428 0 1 1 -49.28571,0 24.642857,18.571428 0 1 1 49.28571,0 z"
       transform="matrix(0.59200853,-0.25943894,0.47472815,0.6974892,52.788836,270.88474)" />
    <path
       sodipodi:type="arc"
       style="opacity:0.95999995;fill:#acabf6;fill-opacity:1;stroke:none"
       id="path3844-5"
       sodipodi:cx="496.42856"
       sodipodi:cy="492.71933"
       sodipodi:rx="12.857142"
       sodipodi:ry="10.357142"
       d="m 509.2857,492.71933 a 12.857142,10.357142 0 1 1 -4.00471,-7.51115 l -8.85243,7.51115 z"
       sodipodi:start="0"
       sodipodi:end="5.4718388"
       transform="matrix(0.55152534,0.04686569,-0.02259916,0.62983394,284.12039,202.97517)" />
    <path
       sodipodi:type="arc"
       style="opacity:0.95999995;fill:#634c96;fill-opacity:1;stroke:#390909;stroke-width:10.26346111;stroke-linecap:round;stroke-linejoin:round;stroke-miterlimit:4;stroke-opacity:1;stroke-dasharray:none;stroke-dashoffset:0"
       id="path2987-2-1-0-0-68"
       sodipodi:cx="301.78571"
       sodipodi:cy="640.57648"
       sodipodi:rx="36.785713"
       sodipodi:ry="14.642858"
       d="m 338.57142,640.57648 a 36.785713,14.642858 0 1 1 -73.57143,0 36.785713,14.642858 0 1 1 73.57143,0 z"
       transform="matrix(0.17457871,-0.02567156,0.16165138,0.64017044,342.85722,218.67485)" />
    <path
       sodipodi:type="arc"
       style="opacity:0.95999995;fill:#634c96;fill-opacity:1;stroke:#390909;stroke-width:10.26346111;stroke-linecap:round;stroke-linejoin:round;stroke-miterlimit:4;stroke-opacity:1;stroke-dasharray:none;stroke-dashoffset:0"
       id="path2987-2-1-0-0-0-6"
       sodipodi:cx="301.78571"
       sodipodi:cy="640.57648"
       sodipodi:rx="36.785713"
       sodipodi:ry="14.642858"
       d="m 338.57142,640.57648 a 36.785713,14.642858 0 1 1 -73.57143,0 36.785713,14.642858 0 1 1 73.57143,0 z"
       transform="matrix(0.17457871,-0.02567156,0.16165138,0.64017044,356.84064,217.87729)" />
    <path
       sodipodi:type="arc"
       style="opacity:0.95999995;fill:#634c96;fill-opacity:1;stroke:#390909;stroke-width:10.26346111;stroke-linecap:round;stroke-linejoin:round;stroke-miterlimit:4;stroke-opacity:1;stroke-dasharray:none;stroke-dashoffset:0"
       id="path2987-2-1-0-0-6-6"
       sodipodi:cx="301.78571"
       sodipodi:cy="640.57648"
       sodipodi:rx="36.785713"
       sodipodi:ry="14.642858"
       d="m 338.57142,640.57648 a 36.785713,14.642858 0 1 1 -73.57143,0 36.785713,14.642858 0 1 1 73.57143,0 z"
       transform="matrix(0.17457871,-0.02567156,0.16165138,0.64017044,371.94314,214.30966)" />
    <path
       sodipodi:type="arc"
       style="opacity:0.95999995;fill:#634c96;fill-opacity:1;stroke:#390909;stroke-width:3.05324912;stroke-linecap:round;stroke-linejoin:round;stroke-miterlimit:4;stroke-opacity:1;stroke-dasharray:none;stroke-dashoffset:0"
       id="path2987-2-7"
       sodipodi:cx="301.78571"
       sodipodi:cy="640.57648"
       sodipodi:rx="36.785713"
       sodipodi:ry="14.642858"
       d="m 338.57142,640.57648 a 36.785713,14.642858 0 1 1 -73.57143,0 36.785713,14.642858 0 1 1 73.57143,0 z"
       transform="matrix(1.1854007,0,0,1.1048895,-0.37318726,119.63962)" />
    <path
       sodipodi:type="arc"
       style="opacity:0.95999995;fill:#b000a4;fill-opacity:1;stroke:#390909;stroke-width:3.56504869;stroke-linecap:round;stroke-linejoin:round;stroke-miterlimit:4;stroke-opacity:1;stroke-dasharray:none;stroke-dashoffset:0"
       id="path2985-6"
       sodipodi:cx="331.42856"
       sodipodi:cy="532.36218"
       sodipodi:rx="65.714287"
       sodipodi:ry="65.714287"
       d="m 397.14285,532.36218 a 65.714287,65.714287 0 1 1 -3.09576,-19.93205 l -62.61853,19.93205 z"
       transform="matrix(1,0,0,0.96067735,1.8875527,263.02254)"
       sodipodi:start="0"
       sodipodi:end="5.9750169" />
    <path
       sodipodi:type="arc"
       style="opacity:0.95999995;fill:#634c96;fill-opacity:1;stroke:#390909;stroke-width:3.05324912;stroke-linecap:round;stroke-linejoin:round;stroke-miterlimit:4;stroke-opacity:1;stroke-dasharray:none;stroke-dashoffset:0"
       id="path2987-2-1-46"
       sodipodi:cx="301.78571"
       sodipodi:cy="640.57648"
       sodipodi:rx="36.785713"
       sodipodi:ry="14.642858"
       d="m 338.57142,640.57648 a 36.785713,14.642858 0 1 1 -73.57143,0 36.785713,14.642858 0 1 1 73.57143,0 z"
       transform="matrix(1.1854007,0,0,1.1048895,-37.706577,123.74452)" />
    <path
       sodipodi:type="arc"
       style="opacity:0.95999995;fill:#634c96;fill-opacity:1;stroke:#390909;stroke-width:2.50336862;stroke-linecap:round;stroke-linejoin:round;stroke-miterlimit:4;stroke-opacity:1;stroke-dasharray:none;stroke-dashoffset:0"
       id="path2987-2-1-0-6"
       sodipodi:cx="301.78571"
       sodipodi:cy="640.57648"
       sodipodi:rx="36.785713"
       sodipodi:ry="14.642858"
       d="m 338.57142,640.57648 a 36.785713,14.642858 0 1 1 -73.57143,0 36.785713,14.642858 0 1 1 73.57143,0 z"
       transform="matrix(0.71574828,-0.10524977,0.66274804,2.6246093,-322.8341,-860.56382)" />
    <path
       sodipodi:type="arc"
       style="opacity:0.95999995;fill:#fff0fe;fill-opacity:1;stroke:#390909;stroke-width:4;stroke-linecap:round;stroke-linejoin:round;stroke-miterlimit:4;stroke-opacity:1;stroke-dasharray:none;stroke-dashoffset:0"
       id="path3842-71"
       sodipodi:cx="398.21429"
       sodipodi:cy="532.36218"
       sodipodi:rx="24.642857"
       sodipodi:ry="18.571428"
       d="m 422.85715,532.36218 a 24.642857,18.571428 0 1 1 -49.28571,0 24.642857,18.571428 0 1 1 49.28571,0 z"
       transform="matrix(0.61897381,-0.18615607,0.38715442,0.74964622,-94.345877,416.8918)" />
    <path
       sodipodi:type="arc"
       style="opacity:0.95999995;fill:#acabf6;fill-opacity:1;stroke:none"
       id="path3844-1"
       sodipodi:cx="496.42856"
       sodipodi:cy="492.71933"
       sodipodi:rx="12.857142"
       sodipodi:ry="10.357142"
       d="m 509.2857,492.71933 a 12.857142,10.357142 0 1 1 -4.00471,-7.51115 l -8.85243,7.51115 z"
       sodipodi:start="0"
       sodipodi:end="5.4718388"
       transform="matrix(0.54184913,0.11303149,-0.09838519,0.62251254,143.48668,377.37381)" />
    <path
       sodipodi:type="arc"
       style="opacity:0.95999995;fill:#634c96;fill-opacity:1;stroke:#390909;stroke-width:10.26346111;stroke-linecap:round;stroke-linejoin:round;stroke-miterlimit:4;stroke-opacity:1;stroke-dasharray:none;stroke-dashoffset:0"
       id="path2987-2-1-0-0-09"
       sodipodi:cx="301.78571"
       sodipodi:cy="640.57648"
       sodipodi:rx="36.785713"
       sodipodi:ry="14.642858"
       d="m 338.57142,640.57648 a 36.785713,14.642858 0 1 1 -73.57143,0 36.785713,14.642858 0 1 1 73.57143,0 z"
       transform="matrix(0.17457871,-0.02567156,0.16165138,0.64017044,155.71437,418.67486)" />
    <path
       sodipodi:type="arc"
       style="opacity:0.95999995;fill:#634c96;fill-opacity:1;stroke:#390909;stroke-width:10.26346111;stroke-linecap:round;stroke-linejoin:round;stroke-miterlimit:4;stroke-opacity:1;stroke-dasharray:none;stroke-dashoffset:0"
       id="path2987-2-1-0-0-0-5"
       sodipodi:cx="301.78571"
       sodipodi:cy="640.57648"
       sodipodi:rx="36.785713"
       sodipodi:ry="14.642858"
       d="m 338.57142,640.57648 a 36.785713,14.642858 0 1 1 -73.57143,0 36.785713,14.642858 0 1 1 73.57143,0 z"
       transform="matrix(0.17457871,-0.02567156,0.16165138,0.64017044,169.69778,417.8773)" />
    <path
       sodipodi:type="arc"
       style="opacity:0.95999995;fill:#634c96;fill-opacity:1;stroke:#390909;stroke-width:10.26346111;stroke-linecap:round;stroke-linejoin:round;stroke-miterlimit:4;stroke-opacity:1;stroke-dasharray:none;stroke-dashoffset:0"
       id="path2987-2-1-0-0-6-7"
       sodipodi:cx="301.78571"
       sodipodi:cy="640.57648"
       sodipodi:rx="36.785713"
       sodipodi:ry="14.642858"
       d="m 338.57142,640.57648 a 36.785713,14.642858 0 1 1 -73.57143,0 36.785713,14.642858 0 1 1 73.57143,0 z"
       transform="matrix(0.17457871,-0.02567156,0.16165138,0.64017044,184.80028,414.30967)" />
    <path
       sodipodi:type="arc"
       style="opacity:0.95999995;fill:#acabf6;fill-opacity:1;stroke:none"
       id="path4020"
       sodipodi:cx="648.57141"
       sodipodi:cy="578.07648"
       sodipodi:rx="24.285715"
       sodipodi:ry="11.428572"
       d="m 672.85713,578.07648 a 24.285715,11.428572 0 1 1 -48.57143,0 24.285715,11.428572 0 1 1 48.57143,0 z"
       transform="translate(127.14287,-85.714294)" />
    <path
       sodipodi:type="arc"
       style="opacity:0.95999995;fill:#acabf6;fill-opacity:1;stroke:#000000;stroke-width:3;stroke-miterlimit:4;stroke-opacity:1;stroke-dasharray:none"
       id="path4022"
       sodipodi:cx="629.28571"
       sodipodi:cy="536.64789"
       sodipodi:rx="23.571428"
       sodipodi:ry="10"
       d="m 652.85713,536.64789 a 23.571428,10 0 1 1 -47.14285,0 23.571428,10 0 1 1 47.14285,0 z"
       transform="translate(-43.285706,35.714294)"
       inkscape:export-filename="/home/salomon/html5/grape-juiced/gfx/grape-missile.png"
       inkscape:export-xdpi="35"
       inkscape:export-ydpi="35" />
    <path
       sodipodi:type="arc"
       style="opacity:0.95999995;fill:#634c96;fill-opacity:1;stroke:#390909;stroke-width:3.05324912;stroke-linecap:round;stroke-linejoin:round;stroke-miterlimit:4;stroke-opacity:1;stroke-dasharray:none;stroke-dashoffset:0"
       id="path2987-2-7-5"
       sodipodi:cx="301.78571"
       sodipodi:cy="640.57648"
       sodipodi:rx="36.785713"
       sodipodi:ry="14.642858"
       d="m 338.57142,640.57648 a 36.785713,14.642858 0 1 1 -73.57143,0 36.785713,14.642858 0 1 1 73.57143,0 z"
       transform="matrix(1.1854007,0,0,1.1048895,246.76967,238.21104)" />
    <path
       sodipodi:type="arc"
       style="opacity:0.95999995;fill:#634c96;fill-opacity:1;stroke:#390909;stroke-width:3.05324912;stroke-linecap:round;stroke-linejoin:round;stroke-miterlimit:4;stroke-opacity:1;stroke-dasharray:none;stroke-dashoffset:0"
       id="path2987-2-1-46-3"
       sodipodi:cx="301.78571"
       sodipodi:cy="640.57648"
       sodipodi:rx="36.785713"
       sodipodi:ry="14.642858"
       d="m 338.57142,640.57648 a 36.785713,14.642858 0 1 1 -73.57143,0 36.785713,14.642858 0 1 1 73.57143,0 z"
       transform="matrix(1.1854007,0,0,1.1048895,-17.736987,248.41722)"
       inkscape:export-filename="/home/salomon/html5/grape-juiced/gfx/grape-foot.png"
       inkscape:export-xdpi="35"
       inkscape:export-ydpi="35" />
    <g
       id="g4077"
       transform="matrix(0.17197015,-0.98510217,0.98510217,0.17197015,-318.07257,1264.782)"
       inkscape:export-filename="/home/salomon/html5/grape-juiced/gfx/grape-body.png"
       inkscape:export-xdpi="35"
       inkscape:export-ydpi="35">
      <path
         sodipodi:end="5.9750169"
         sodipodi:start="0"
         transform="matrix(1,0,0,0.96067735,261.88755,310.16539)"
         d="m 397.14285,532.36218 c 0,36.293 -29.42129,65.71429 -65.71429,65.71429 -36.293,0 -65.71429,-29.42129 -65.71429,-65.71429 0,-36.293 29.42129,-65.71428 65.71429,-65.71428 28.61431,0 53.93942,18.51592 62.61853,45.78223 l -62.61853,19.93205 z"
         sodipodi:ry="65.714287"
         sodipodi:rx="65.714287"
         sodipodi:cy="532.36218"
         sodipodi:cx="331.42856"
         id="path2985-6-1"
         style="opacity:0.95999995;fill:#b000a4;fill-opacity:1;stroke:#390909;stroke-width:3.56504869;stroke-linecap:round;stroke-linejoin:round;stroke-miterlimit:4;stroke-opacity:1;stroke-dasharray:none;stroke-dashoffset:0"
         sodipodi:type="arc" />
      <path
         transform="matrix(0.61897381,-0.18615607,0.38715442,0.74964622,165.65412,464.03465)"
         d="m 422.85715,532.36218 c 0,10.25672 -11.03298,18.57143 -24.64286,18.57143 -13.60987,0 -24.64285,-8.31471 -24.64285,-18.57143 0,-10.25671 11.03298,-18.57143 24.64285,-18.57143 13.60988,0 24.64286,8.31472 24.64286,18.57143 z"
         sodipodi:ry="18.571428"
         sodipodi:rx="24.642857"
         sodipodi:cy="532.36218"
         sodipodi:cx="398.21429"
         id="path3842-71-3"
         style="opacity:0.95999995;fill:#fff0fe;fill-opacity:1;stroke:#390909;stroke-width:4;stroke-linecap:round;stroke-linejoin:round;stroke-miterlimit:4;stroke-opacity:1;stroke-dasharray:none;stroke-dashoffset:0"
         sodipodi:type="arc" />
      <path
         transform="matrix(0.54184913,0.11303149,-0.09838519,0.62251254,403.48668,424.51666)"
         sodipodi:end="5.4718388"
         sodipodi:start="0"
         d="m 509.2857,492.71933 c 0,5.72009 -5.75634,10.35714 -12.85714,10.35714 -7.10081,0 -12.85714,-4.63705 -12.85714,-10.35714 0,-5.72009 5.75633,-10.35714 12.85714,-10.35714 3.29446,0 6.46323,1.01873 8.85243,2.84599 l -8.85243,7.51115 z"
         sodipodi:ry="10.357142"
         sodipodi:rx="12.857142"
         sodipodi:cy="492.71933"
         sodipodi:cx="496.42856"
         id="path3844-1-4"
         style="opacity:0.95999995;fill:#acabf6;fill-opacity:1;stroke:none"
         sodipodi:type="arc" />
    </g>
    <g
       id="g4084"
       transform="matrix(0.96625117,0.25760176,-0.25760176,0.96625117,252.39577,-88.636645)"
       inkscape:export-filename="/home/salomon/html5/grape-juiced/gfx/grape-arm.png"
       inkscape:export-xdpi="35"
       inkscape:export-ydpi="35">
      <path
         transform="matrix(0.71574828,-0.10524977,0.66274804,2.6246093,-177.11981,-731.9924)"
         d="m 338.57142,640.57648 c 0,8.08702 -16.46953,14.64285 -36.78571,14.64285 -20.31619,0 -36.78572,-6.55583 -36.78572,-14.64285 0,-8.08703 16.46953,-14.64286 36.78572,-14.64286 20.31618,0 36.78571,6.55583 36.78571,14.64286 z"
         sodipodi:ry="14.642858"
         sodipodi:rx="36.785713"
         sodipodi:cy="640.57648"
         sodipodi:cx="301.78571"
         id="path2987-2-1-0-6-1"
         style="opacity:0.95999995;fill:#634c96;fill-opacity:1;stroke:#390909;stroke-width:2.50336862;stroke-linecap:round;stroke-linejoin:round;stroke-miterlimit:4;stroke-opacity:1;stroke-dasharray:none;stroke-dashoffset:0"
         sodipodi:type="arc" />
      <path
         transform="matrix(0.17457871,-0.02567156,0.16165138,0.64017044,301.42866,547.24628)"
         d="m 338.57142,640.57648 c 0,8.08702 -16.46953,14.64285 -36.78571,14.64285 -20.31619,0 -36.78572,-6.55583 -36.78572,-14.64285 0,-8.08703 16.46953,-14.64286 36.78572,-14.64286 20.31618,0 36.78571,6.55583 36.78571,14.64286 z"
         sodipodi:ry="14.642858"
         sodipodi:rx="36.785713"
         sodipodi:cy="640.57648"
         sodipodi:cx="301.78571"
         id="path2987-2-1-0-0-09-6"
         style="opacity:0.95999995;fill:#634c96;fill-opacity:1;stroke:#390909;stroke-width:10.26346111;stroke-linecap:round;stroke-linejoin:round;stroke-miterlimit:4;stroke-opacity:1;stroke-dasharray:none;stroke-dashoffset:0"
         sodipodi:type="arc" />
      <path
         transform="matrix(0.17457871,-0.02567156,0.16165138,0.64017044,315.41207,546.44872)"
         d="m 338.57142,640.57648 c 0,8.08702 -16.46953,14.64285 -36.78571,14.64285 -20.31619,0 -36.78572,-6.55583 -36.78572,-14.64285 0,-8.08703 16.46953,-14.64286 36.78572,-14.64286 20.31618,0 36.78571,6.55583 36.78571,14.64286 z"
         sodipodi:ry="14.642858"
         sodipodi:rx="36.785713"
         sodipodi:cy="640.57648"
         sodipodi:cx="301.78571"
         id="path2987-2-1-0-0-0-5-4"
         style="opacity:0.95999995;fill:#634c96;fill-opacity:1;stroke:#390909;stroke-width:10.26346111;stroke-linecap:round;stroke-linejoin:round;stroke-miterlimit:4;stroke-opacity:1;stroke-dasharray:none;stroke-dashoffset:0"
         sodipodi:type="arc" />
      <path
         transform="matrix(0.17457871,-0.02567156,0.16165138,0.64017044,330.51457,542.88109)"
         d="m 338.57142,640.57648 c 0,8.08702 -16.46953,14.64285 -36.78571,14.64285 -20.31619,0 -36.78572,-6.55583 -36.78572,-14.64285 0,-8.08703 16.46953,-14.64286 36.78572,-14.64286 20.31618,0 36.78571,6.55583 36.78571,14.64286 z"
         sodipodi:ry="14.642858"
         sodipodi:rx="36.785713"
         sodipodi:cy="640.57648"
         sodipodi:cx="301.78571"
         id="path2987-2-1-0-0-6-7-0"
         style="opacity:0.95999995;fill:#634c96;fill-opacity:1;stroke:#390909;stroke-width:10.26346111;stroke-linecap:round;stroke-linejoin:round;stroke-miterlimit:4;stroke-opacity:1;stroke-dasharray:none;stroke-dashoffset:0"
         sodipodi:type="arc" />
    </g>
    <g
       id="g3834"
       transform="matrix(0.09257149,-0.99570604,0.99570604,0.09257149,134.36405,895.95832)"
       inkscape:export-filename="/home/salomon/html5/grape-juiced/gfx/grape-body-fire.png"
       inkscape:export-xdpi="35"
       inkscape:export-ydpi="35">
      <path
         sodipodi:end="5.9750169"
         sodipodi:start="0.44009607"
         transform="matrix(0.99270254,-0.12058885,0.11584697,0.95366684,169.76509,-93.466341)"
         d="m 390.88098,560.3582 c -15.46178,32.83467 -54.61378,46.91818 -87.44844,31.4564 -32.83467,-15.46177 -46.91818,-54.61377 -31.4564,-87.44844 15.46177,-32.83466 54.61377,-46.91817 87.44844,-31.4564 16.53421,7.78593 29.07924,22.10564 34.62251,39.52037 l -62.61853,19.93205 z"
         sodipodi:ry="65.714287"
         sodipodi:rx="65.714287"
         sodipodi:cy="532.36218"
         sodipodi:cx="331.42856"
         id="path2985-8-2"
         style="opacity:0.95999995;fill:#b000a4;fill-opacity:1;stroke:#390909;stroke-width:3.56479144;stroke-linecap:round;stroke-linejoin:round;stroke-miterlimit:4;stroke-opacity:1;stroke-dasharray:none;stroke-dashoffset:0"
         sodipodi:type="arc" />
      <path
         transform="matrix(0.59200853,-0.25943894,0.47472815,0.6974892,92.788829,70.884739)"
         d="m 422.85715,532.36218 c 0,10.25672 -11.03298,18.57143 -24.64286,18.57143 -13.60987,0 -24.64285,-8.31471 -24.64285,-18.57143 0,-10.25671 11.03298,-18.57143 24.64285,-18.57143 13.60988,0 24.64286,8.31472 24.64286,18.57143 z"
         sodipodi:ry="18.571428"
         sodipodi:rx="24.642857"
         sodipodi:cy="532.36218"
         sodipodi:cx="398.21429"
         id="path3842-7-2"
         style="opacity:0.95999995;fill:#fff0fe;fill-opacity:1;stroke:#390909;stroke-width:4;stroke-linecap:round;stroke-linejoin:round;stroke-miterlimit:4;stroke-opacity:1;stroke-dasharray:none;stroke-dashoffset:0"
         sodipodi:type="arc" />
      <path
         transform="matrix(0.55152534,0.04686569,-0.02259916,0.62983394,324.12039,2.975169)"
         sodipodi:end="5.4718388"
         sodipodi:start="0"
         d="m 509.2857,492.71933 c 0,5.72009 -5.75634,10.35714 -12.85714,10.35714 -7.10081,0 -12.85714,-4.63705 -12.85714,-10.35714 0,-5.72009 5.75633,-10.35714 12.85714,-10.35714 3.29446,0 6.46323,1.01873 8.85243,2.84599 l -8.85243,7.51115 z"
         sodipodi:ry="10.357142"
         sodipodi:rx="12.857142"
         sodipodi:cy="492.71933"
         sodipodi:cx="496.42856"
         id="path3844-5-2"
         style="opacity:0.95999995;fill:#acabf6;fill-opacity:1;stroke:none"
         sodipodi:type="arc" />
    </g>
    <rect
       style="opacity:0.95999995;fill:#ee92ec;fill-opacity:1;stroke:#000000;stroke-width:4.03200006;stroke-linecap:round;stroke-linejoin:round;stroke-miterlimit:4;stroke-opacity:1;stroke-dasharray:none;stroke-dashoffset:0"
       id="rect3839"
       width="560"
       height="640"
       x="-1280"
       y="1772.3622"
       inkscape:export-filename="/home/salomon/html5/grape-juiced/gfx/map.png"
       inkscape:export-xdpi="35"
       inkscape:export-ydpi="35" />
    <rect
       style="opacity:0.95999995;fill:#7d1717;fill-opacity:1;stroke:#000000;stroke-width:3;stroke-linecap:round;stroke-linejoin:round;stroke-miterlimit:4;stroke-opacity:1;stroke-dasharray:none;stroke-dashoffset:0"
       id="rect3843"
       width="1680"
       height="240"
       x="-480"
       y="2172.3623"
       inkscape:export-filename="/home/salomon/html5/grape-juiced/gfx/map.png"
       inkscape:export-xdpi="35"
       inkscape:export-ydpi="35" />
    <rect
       style="opacity:0.95999995;fill:#dfec50;fill-opacity:1;stroke:#000000;stroke-width:3;stroke-linecap:round;stroke-linejoin:round;stroke-miterlimit:4;stroke-opacity:1;stroke-dasharray:none;stroke-dashoffset:0"
       id="rect3843-2"
       width="1680"
       height="240"
       x="880"
       y="1452.3622"
       inkscape:export-filename="/home/salomon/html5/grape-juiced/gfx/map.png"
       inkscape:export-xdpi="35"
       inkscape:export-ydpi="35" />
    <path
       sodipodi:type="arc"
       style="opacity:0.95999995;fill:#dfec50;fill-opacity:1;stroke:#000000;stroke-width:4.03200006;stroke-linecap:round;stroke-linejoin:round;stroke-miterlimit:4;stroke-opacity:1;stroke-dasharray:none;stroke-dashoffset:0"
       id="path3247"
       sodipodi:cx="-580"
       sodipodi:cy="2122.3623"
       sodipodi:rx="60"
       sodipodi:ry="70"
       d="m -525.71736,2152.1842 a 60,70 0 1 1 2.8908,-51.0539 L -580,2122.3623 z"
       sodipodi:start="0.44009607"
       sodipodi:end="5.9750169"
       transform="matrix(1.3860844,0,0,1,223.92895,-110.00012)" />
    <path
       style="fill:#1e9ab1;fill-opacity:1;stroke:#000000;stroke-width:1px;stroke-linecap:butt;stroke-linejoin:miter;stroke-opacity:1"
       d="m 80,2172.3622 c 800,-560 800,-560 800,-560 l 0,560 0,0 z"
       id="path3039"
       inkscape:connector-curvature="0" />
  </g>
</svg>
